<svg width="144" height="144" fill="none" xmlns="http://www.w3.org/2000/svg"><g clip-path="url(#clip0_4867_190972)"><circle r="30" transform="matrix(1 0 0 -1 72 72)" fill="#F8D33A"/><circle r="20.526" transform="matrix(1 0 0 -1 72.002 72.003)" fill="url(#paint0_linear_4867_190972)"/><path d="M60.947 72L72 83.053 83.052 72 72 60.947 60.947 72z" fill="#F0B90B"/><path opacity=".3" d="M72.014 132.012a59.856 59.856 0 0015.525-2.068c32-8.614 50.99-41.654 42.416-73.799-4.287-16.07-14.662-28.882-27.949-36.588l6.061-10.545-24.625 6.628 6.598 24.736 5.968-10.382c10.644 6.173 18.928 16.41 22.359 29.27 6.859 25.716-8.333 52.148-33.933 59.039a47.823 47.823 0 01-12.42 1.654v12.055z" fill="#76808F"/><path d="M72.014 12.012a59.813 59.813 0 00-15.525 2.068c-32 8.613-50.99 41.654-42.416 73.798 4.286 16.071 14.661 28.883 27.948 36.588l-6.06 10.546 24.624-6.628-6.598-24.737-5.967 10.383c-10.644-6.173-18.929-16.411-22.36-29.27-6.859-25.716 8.333-52.149 33.933-59.04a47.851 47.851 0 0112.42-1.654V12.012z" fill="url(#paint1_linear_4867_190972)"/><path opacity=".3" d="M72.014 12.012a59.813 59.813 0 00-15.525 2.068c-32 8.613-50.99 41.654-42.416 73.798 4.286 16.071 14.661 28.883 27.948 36.588l-6.06 10.546 24.624-6.628-6.598-24.737-5.967 10.383c-10.644-6.173-18.929-16.411-22.36-29.27-6.859-25.716 8.333-52.149 33.933-59.04a47.851 47.851 0 0112.42-1.654V12.012z" fill="#76808F"/><path d="M12 15.386L17.787 9.6l5.786 5.786-5.786 5.787L12 15.386zm108 117.601l5.787-5.787 5.786 5.787-5.786 5.787-5.787-5.787z" fill="#76808F" fill-opacity=".3"/></g><defs><linearGradient id="paint0_linear_4867_190972" x1="20.526" y1="0" x2="20.526" y2="41.053" gradientUnits="userSpaceOnUse"><stop stop-color="#F0B90B"/><stop offset="1" stop-color="#F8D33A"/></linearGradient><linearGradient id="paint1_linear_4867_190972" x1="42.014" y1="135.012" x2="42.014" y2="12.012" gradientUnits="userSpaceOnUse"><stop stop-color="#929AA5"/><stop offset="1" stop-color="#76808F"/></linearGradient><clipPath id="clip0_4867_190972"><path fill="#fff" d="M0 0h144v144H0z"/></clipPath></defs></svg>