<svg width="145" height="144" fill="none" xmlns="http://www.w3.org/2000/svg"><path d="M32.192 121.579c7.817 7.817 15.411 10.423 22.017 10.423l34.49-.017c12.444 0 22.532-10.088 22.532-22.532H69.575L56.017 95.749l2.849-2.849 8.742 8.742c5.104 5.104 13.38 5.104 18.485 0l-22.139-22.14H32.192v42.077z" fill="url(#paint0_linear_4883_179145)"/><path fill="url(#paint1_linear_4883_179145)" d="M11.999 79.502h20.192v52.5H11.999z"/><path opacity=".3" d="M15.6 31.2l6 6-6 6-6-6 6-6z" fill="#AEB4BC"/><path d="M106.188 83.252l3.749-3.75 3.75 3.75-3.75 3.75-3.749-3.75z" fill="#76808F" fill-opacity=".3"/><path opacity=".3" d="M131.898 0l7.097 7.097-7.097 7.097-7.097-7.097L131.898 0z" fill="#AEB4BC"/><path fill-rule="evenodd" clip-rule="evenodd" d="M55.2 66.001h89.146v-42H55.199v42zm54.737-6c4.8-3.259 7.953-8.761 7.953-15 0-6.239-3.154-11.741-7.954-15h20.91a7.5 7.5 0 007.5 7.5v15a7.5 7.5 0 00-7.5 7.5h-20.909zm-20.33 0H68.7a7.5 7.5 0 00-7.5-7.5v-15a7.5 7.5 0 007.5-7.5h20.909c-4.8 3.259-7.954 8.761-7.954 15 0 6.239 3.153 11.741 7.953 15z" fill="#AEB4BC"/><path d="M117.891 45c0 6.239-3.154 11.741-7.953 15h20.908a7.5 7.5 0 017.5-7.5v-15a7.5 7.5 0 01-7.5-7.5h-20.909c4.8 3.259 7.954 8.761 7.954 15zM68.7 60h20.91c-4.8-3.259-7.953-8.761-7.953-15 0-6.239 3.153-11.741 7.953-15H68.7a7.5 7.5 0 01-7.5 7.5v15a7.5 7.5 0 017.5 7.5z" fill="#AEB4BC" fill-opacity=".3"/><circle transform="matrix(1 0 0 -1 54 25.199)" fill="#F8D33A" r="22.8"/><circle r="16.51" transform="matrix(1 0 0 -1 54 25.196)" fill="url(#paint2_linear_4883_179145)"/><path d="M45.35 25.198l8.648 8.649 8.648-8.649-8.648-8.648-8.648 8.648z" fill="#F0B90B"/><defs><linearGradient id="paint0_linear_4883_179145" x1="71.712" y1="79.502" x2="71.712" y2="132.002" gradientUnits="userSpaceOnUse"><stop stop-color="#F0B90B"/><stop offset="1" stop-color="#F8D33A"/></linearGradient><linearGradient id="paint1_linear_4883_179145" x1="32.191" y1="94.317" x2="11.999" y2="94.317" gradientUnits="userSpaceOnUse"><stop stop-color="#929AA5"/><stop offset="1" stop-color="#76808F"/></linearGradient><linearGradient id="paint2_linear_4883_179145" x1="16.51" y1="0" x2="16.51" y2="33.021" gradientUnits="userSpaceOnUse"><stop stop-color="#F0B90B"/><stop offset="1" stop-color="#F8D33A"/></linearGradient></defs></svg>