<svg width="144" height="144" fill="none" xmlns="http://www.w3.org/2000/svg"><path transform="rotate(45 71.998 3.223)" fill="url(#paint0_linear_4867_191068)" d="M71.998 3.223h19.2v19.2h-19.2z"/><path opacity=".3" fill="#76808F" d="M19.198 19.2h19.2v19.2h-19.2zm84 0h19.2v19.2h-19.2zm-84 84h19.2v19.2h-19.2zm84 0h19.2v19.2h-19.2z"/><path transform="rotate(135 141.561 72.787)" fill="url(#paint1_linear_4867_191068)" d="M141.561 72.787h19.2v19.2h-19.2z"/><path transform="rotate(45 71.998 115.2)" fill="url(#paint2_linear_4867_191068)" d="M71.998 115.2h19.2v19.2h-19.2z"/><path transform="rotate(135 29.586 72.787)" fill="url(#paint3_linear_4867_191068)" d="M29.586 72.787h19.2v19.2h-19.2z"/><circle r="27" transform="matrix(1 0 0 -1 72.598 72.6)" fill="#F8D33A"/><circle r="19" transform="matrix(1 0 0 -1 72.6 72.599)" fill="url(#paint4_linear_4867_191068)"/><path d="M62.878 72.6l9.72 9.72 9.72-9.72-9.72-9.72-9.72 9.72z" fill="#F0B90B"/><defs><linearGradient id="paint0_linear_4867_191068" x1="81.598" y1="3.223" x2="81.598" y2="22.423" gradientUnits="userSpaceOnUse"><stop stop-color="#929AA5"/><stop offset="1" stop-color="#76808F"/></linearGradient><linearGradient id="paint1_linear_4867_191068" x1="151.161" y1="72.787" x2="151.161" y2="91.987" gradientUnits="userSpaceOnUse"><stop stop-color="#929AA5"/><stop offset="1" stop-color="#76808F"/></linearGradient><linearGradient id="paint2_linear_4867_191068" x1="81.598" y1="115.2" x2="81.598" y2="134.4" gradientUnits="userSpaceOnUse"><stop stop-color="#929AA5"/><stop offset="1" stop-color="#76808F"/></linearGradient><linearGradient id="paint3_linear_4867_191068" x1="39.186" y1="72.787" x2="39.186" y2="91.987" gradientUnits="userSpaceOnUse"><stop stop-color="#929AA5"/><stop offset="1" stop-color="#76808F"/></linearGradient><linearGradient id="paint4_linear_4867_191068" x1="19" y1="0" x2="19" y2="38" gradientUnits="userSpaceOnUse"><stop stop-color="#F0B90B"/><stop offset="1" stop-color="#F8D33A"/></linearGradient></defs></svg>