<svg width="144" height="144" fill="none" xmlns="http://www.w3.org/2000/svg"><circle r="35.25" transform="matrix(1 0 0 -1 92.25 51.749)" fill="url(#paint0_linear_4867_190898)"/><path opacity=".3" fill-rule="evenodd" clip-rule="evenodd" d="M92.249 76.555c13.7 0 24.805-11.106 24.805-24.806 0-13.7-11.105-24.806-24.805-24.806S67.443 38.05 67.443 51.75s11.106 24.806 24.806 24.806zm0-37.495l-12.69 12.69 12.69 12.69 12.69-12.69-12.69-12.69z" fill="#AEB4BC"/><circle r="35.25" transform="matrix(1 0 0 -1 51.75 92.249)" fill="#F8D33A"/><circle r="24.806" transform="matrix(1 0 0 -1 51.749 92.247)" fill="url(#paint1_linear_4867_190898)"/><path d="M39.06 92.25l12.69 12.689 12.69-12.69-12.69-12.69-12.69 12.69z" fill="#F0B90B"/><path d="M54 18H18v36l36-36zm-7.5 15.75L50.25 30 54 33.75l-3.75 3.75-3.75-3.75zm45 68.25l6-6 6 6-6 6-6-6zM12 67.5l-3 3 3 3 3-3-3-3zM126 126H90l36-36v36z" opacity=".3" fill="#AEB4BC"/><defs><linearGradient id="paint0_linear_4867_190898" x1="35.25" y1="0" x2="35.25" y2="70.5" gradientUnits="userSpaceOnUse"><stop stop-color="#929AA5"/><stop offset="1" stop-color="#76808F"/></linearGradient><linearGradient id="paint1_linear_4867_190898" x1="24.806" y1="0" x2="24.806" y2="49.611" gradientUnits="userSpaceOnUse"><stop stop-color="#F0B90B"/><stop offset="1" stop-color="#F8D33A"/></linearGradient></defs></svg>